<?xml version="1.0" encoding="iso-8859-1"?>
<!-- Generator: Adobe Illustrator 16.0.0, SVG Export Plug-In . SVG Version: 6.00 Build 0)  -->
<!DOCTYPE svg PUBLIC "-//W3C//DTD SVG 1.1//EN" "http://www.w3.org/Graphics/SVG/1.1/DTD/svg11.dtd">
<svg version="1.1" id="Capa_1" xmlns="http://www.w3.org/2000/svg" xmlns:xlink="http://www.w3.org/1999/xlink" x="0px" y="0px"
	 width="339.813px" height="339.813px" viewBox="0 0 339.813 339.813" style="enable-background:new 0 0 339.813 339.813;"
	 xml:space="preserve">
<g>
	<g>
		<path d="M80.167,273.261c-17.136-2.447-26.928-14.076-33.66-28.764c-1.224-2.447-2.448-10.404-4.896-17.135
			c3.672-0.613,7.344-1.225,11.016-1.225c4.284-0.611,9.18-4.285,7.344-9.18c-9.18-22.645-16.524-46.512-23.256-69.769
			c-1.836-6.12-11.016-7.956-14.076-1.836c-7.344,15.3-12.24,31.823-16.524,48.349c-3.06,10.404-8.568,23.256-4.896,33.66
			c1.224,4.283,7.344,5.508,9.792,1.223l0,0c5.508,1.225,10.404,1.836,15.3,1.225c4.896,26.316,22.644,56.916,52.632,55.08
			C85.063,284.278,86.899,274.485,80.167,273.261z M15.295,217.569c5.508-14.076,8.568-29.375,12.852-44.064
			c4.284,14.076,8.568,27.541,14.076,41.004C33.655,216.958,24.475,217.569,15.295,217.569z"/>
		<path d="M182.371,29.686c-12.24-6.12-25.092-10.404-39.168-12.852c-11.628-2.448-27.54-5.508-37.944,0.612
			c-3.06,1.836-3.672,6.12-1.836,9.18c0,4.896,0.612,9.792,1.224,14.688c-12.852,0.612-25.704,12.852-34.884,20.808
			C58.135,72.525,48.343,85.99,44.059,101.29c-1.224,5.508,6.12,9.18,9.18,3.672c7.344-12.852,15.3-23.868,26.316-33.048
			c7.956-6.732,20.808-12.24,27.54-20.196c2.448,7.344,4.896,14.688,7.956,21.42c1.224,3.06,5.508,4.284,8.568,3.672
			c22.032-7.956,41.616-20.808,59.976-34.884C187.879,38.866,186.655,31.521,182.371,29.686z M114.439,30.297
			c7.956,0.612,17.136,0,25.092,1.224s15.912,3.672,23.868,6.732c-11.628,8.568-24.48,16.524-37.944,22.032
			C120.559,50.494,116.887,40.702,114.439,30.297z"/>
		<path d="M329.863,92.109c-5.509,1.224-11.017,3.06-16.524,4.284l0,0c1.224-12.852-19.584-29.988-28.764-36.72
			c-14.688-11.016-31.824-17.136-50.185-14.076c-5.508,0.612-3.672,8.568,1.225,9.18c18.972,1.224,33.048,9.18,47.124,21.42
			c6.731,6.12,12.852,18.36,20.808,23.256c-7.956,2.448-15.912,4.896-23.868,9.18c-0.611,0.612-1.224,1.224-1.836,1.836
			c-2.448,1.836-3.672,4.284-3.06,7.956c4.283,26.316,17.136,50.796,35.496,69.769c3.672,4.283,11.628,2.447,12.852-3.672
			c6.732-27.541,7.344-56.305,16.524-83.233C340.879,95.782,334.759,90.273,329.863,92.109z M320.683,108.633
			c-4.896,18.36-7.344,37.332-10.403,56.304c-10.404-14.688-17.748-31.212-20.809-49.572
			C299.875,112.306,310.279,109.857,320.683,108.633z"/>
		<path d="M277.843,276.933c12.853-12.852,21.42-30.6,18.36-48.959c-1.225-4.896-8.568-3.672-8.568,1.225
			c-0.612,16.523-10.404,29.375-22.032,39.779c-5.508,5.508-12.239,9.18-18.972,12.852c-2.448,1.225-4.284,1.836-6.731,3.061
			c-1.837-6.121-3.673-12.24-3.673-18.973c0-4.895-6.119-9.791-11.016-6.119c-17.136,12.852-34.884,24.48-51.408,37.332
			c-4.896,3.672-1.224,11.016,3.672,12.852c11.017,4.283,22.032,7.344,33.049,10.404c7.955,2.447,18.972,7.344,27.539,4.896
			c4.284-1.225,6.12-7.344,3.061-10.404c0,0,0,0-0.612-0.613c2.448,0,4.284-1.836,4.896-4.895c0-3.672,0-6.732-0.612-9.793
			C255.811,298.354,271.111,283.665,277.843,276.933z M213.583,305.085c-6.12-1.836-12.853-3.672-18.972-5.508
			c10.403-7.344,20.808-14.688,30.6-22.645c3.672,9.793,6.732,21.422,7.344,31.824c0,0.613,0,1.225,0.612,1.836
			C227.659,307.534,219.703,306.921,213.583,305.085z"/>
	</g>
</g>
<g>
</g>
<g>
</g>
<g>
</g>
<g>
</g>
<g>
</g>
<g>
</g>
<g>
</g>
<g>
</g>
<g>
</g>
<g>
</g>
<g>
</g>
<g>
</g>
<g>
</g>
<g>
</g>
<g>
</g>
</svg>
